<svg xmlns="http://www.w3.org/2000/svg" viewBox="0 0 72 72" width="72" height="72" fill="none">
  <path d="M54.7402 54.7937L68.7215 40.8112C73.4302 36.1037 70.184 32.1425 68.8152 30.7737L54.7402 16.6987V54.7937Z" fill="#8A4BDB"/>
  <path d="M16.4302 16.6927L30.4114 2.71144C35.1202 -1.99106 39.0864 1.25394 40.4552 2.61769L54.5302 16.6927H16.4302Z" fill="#5954CD"/>
  <path d="M16.5562 54.8149L30.5387 68.7974C35.2462 73.4999 39.2124 70.2549 40.5762 68.8899L54.6512 54.8149H16.5562Z" fill="#69E9F5"/>
  <path d="M16.5236 16.709L2.56858 30.7127C-2.16142 35.399 1.08358 39.359 2.44858 40.729L16.5236 54.804V16.709Z" fill="#31BDC6"/>
  <rect x="16.5" y="16.7" width="38.25" height="38.1" fill="#020202"/>
  <g transform="translate(35.6 35.75)" fill="none" stroke="#FEFEFE" stroke-width="2.6" stroke-linecap="round" stroke-linejoin="round">
    <circle cx="0" cy="-4.8" r="3.2"/>
    <path d="M -6.4,7 A 6.4 6.4 0 0 1 6.4,7"/>
  </g>
</svg>
